<svg width="29" height="29" viewBox="0 0 29 29" fill="none" xmlns="http://www.w3.org/2000/svg">
<path d="M21.6049 13.05C21.6049 12.615 21.7499 12.18 21.7499 11.6C21.7499 8.41005 19.1399 5.80005 15.9499 5.80005C13.6299 5.80005 11.745 7.10505 10.7299 8.99005C10.4399 8.84505 9.85995 8.70005 9.42495 8.70005C7.39495 8.70005 5.79995 10.295 5.79995 12.325C5.79995 12.615 5.79995 12.905 5.94495 13.05C3.33495 13.485 1.44995 15.515 1.44995 18.125C1.44995 20.88 3.76995 23.2 6.52495 23.2H21.0249C23.7799 23.2 26.0999 20.88 26.0999 18.125C26.0999 15.515 24.2149 13.34 21.6049 13.05Z" fill="white"/>
</svg>
